<?xml version="1.0" standalone="no"?>
<!DOCTYPE svg PUBLIC "-//W3C//DTD SVG 20010904//EN"
 "http://www.w3.org/TR/2001/REC-SVG-20010904/DTD/svg10.dtd">
<svg version="1.0" xmlns="http://www.w3.org/2000/svg"
 width="400.000000pt" height="396.000000pt" viewBox="0 0 400.000000 396.000000"
 preserveAspectRatio="xMidYMid meet">

<g transform="translate(0.000000,396.000000) scale(0.100000,-0.100000)"
fill="#000000" stroke="none">
<path d="M2228 3737 c-7 -8 -76 -108 -153 -224 l-139 -210 -121 -11 c-321 -31
-496 -136 -536 -321 -28 -133 77 -361 167 -361 72 0 104 37 328 379 l187 284
142 -7 c78 -4 144 -10 146 -12 12 -12 -97 -646 -113 -656 -16 -11 -592 -201
-709 -233 -76 -22 -97 -32 -95 -44 2 -10 12 -15 23 -13 36 5 446 133 608 189
87 30 161 52 164 49 8 -8 -117 -629 -162 -808 -6 -24 -4 -28 12 -28 22 0 36
56 147 598 30 145 56 265 58 266 1 1 39 15 83 31 237 84 553 229 677 312 156
103 182 195 70 253 -62 31 -278 72 -567 106 -77 9 -142 17 -144 19 -1 2 3 60
9 129 16 160 10 278 -15 306 -21 23 -48 26 -67 7z m48 -54 c8 -29 -2 -286 -12
-345 l-7 -38 -134 0 c-104 0 -134 3 -130 13 11 30 258 397 267 397 5 0 13 -12
16 -27z m-376 -428 c0 -3 -82 -130 -183 -283 -183 -278 -220 -322 -271 -322
-46 0 -109 107 -127 217 -10 57 -10 77 4 124 39 133 188 224 423 258 68 10
154 13 154 6z m602 -25 c425 -54 563 -96 543 -163 -19 -60 -131 -138 -345
-240 -140 -67 -499 -211 -506 -204 -2 2 13 105 35 228 21 123 44 263 51 312
14 103 -7 97 222 67z"/>
<path d="M890 1455 l25 -13 5 -414 5 -413 24 38 23 37 34 -29 c43 -38 104 -55
177 -48 138 12 231 127 231 287 0 119 -52 218 -137 262 -31 16 -60 22 -112 22
-73 0 -117 -16 -162 -57 l-23 -20 0 181 0 182 -57 0 c-55 -1 -57 -1 -33 -15z
m326 -304 c85 -39 130 -140 121 -274 -7 -117 -48 -196 -118 -232 -60 -32 -160
-14 -216 38 -22 20 -23 26 -23 210 l0 190 36 33 c57 54 129 67 200 35z"/>
<path d="M1938 1458 c21 -11 22 -16 22 -145 l0 -133 -35 0 c-19 0 -35 -4 -35
-10 0 -5 15 -10 34 -10 l34 0 4 -227 c3 -194 6 -233 21 -260 34 -63 97 -83
182 -58 30 8 55 20 55 25 0 5 -16 2 -35 -6 -19 -7 -48 -14 -64 -14 -85 0 -91
19 -91 305 l0 235 75 0 c43 0 75 4 75 10 0 6 -32 10 -75 10 l-75 0 0 145 0
145 -57 -1 c-49 0 -55 -2 -35 -11z"/>
<path d="M475 1397 c18 -14 15 -26 -113 -392 -73 -208 -130 -381 -127 -384 10
-9 21 16 57 121 l33 98 177 0 176 0 37 -110 37 -110 34 0 c19 0 34 3 34 8 -1
4 -63 180 -138 392 l-137 385 -45 3 c-41 3 -43 2 -25 -11z m114 -305 l80 -232
-164 0 c-91 0 -165 3 -165 8 0 10 149 442 156 454 3 5 8 8 10 6 1 -2 39 -108
83 -236z"/>
<path d="M1597 1178 c-75 -20 -118 -92 -103 -172 9 -48 48 -78 159 -121 114
-44 156 -76 164 -127 21 -135 -163 -194 -298 -96 -23 16 -39 24 -37 16 6 -21
109 -68 163 -74 167 -20 274 124 189 253 -15 24 -149 94 -207 108 -45 12 -97
67 -97 103 0 66 80 119 163 108 31 -4 35 -3 17 3 -33 12 -66 11 -113 -1z"/>
<path d="M2369 1162 c-197 -103 -193 -430 6 -535 56 -29 164 -29 220 0 120 63
178 208 141 352 -34 132 -128 211 -251 211 -49 0 -74 -6 -116 -28z m203 -10
c66 -39 108 -139 108 -257 0 -163 -79 -275 -194 -275 -73 0 -121 34 -164 115
-25 45 -27 60 -27 160 0 124 16 174 74 232 54 54 137 64 203 25z"/>
<path d="M3070 1178 c-43 -12 -87 -42 -122 -82 l-27 -31 -1 58 0 57 -57 0
c-53 -1 -56 -2 -39 -15 11 -8 23 -15 28 -15 4 0 8 -119 8 -265 l0 -265 29 0
30 0 3 213 c3 213 3 214 29 248 30 39 106 83 161 93 22 4 52 1 77 -8 23 -7 41
-10 41 -6 0 12 -59 30 -94 29 -17 0 -47 -5 -66 -11z"/>
<path d="M3296 1163 c12 -10 67 -104 122 -210 l101 -192 -64 -124 c-65 -124
-73 -143 -56 -132 15 9 342 657 338 669 -2 6 -44 -69 -93 -166 -49 -98 -91
-178 -95 -178 -3 0 -46 78 -95 173 l-89 172 -45 3 c-44 2 -45 2 -24 -15z"/>
<path d="M1773 1144 c21 -14 41 -24 43 -21 6 5 -59 47 -72 47 -5 0 9 -12 29
-26z"/>
<path d="M1111 353 c2 -85 2 -86 9 -33 11 80 11 120 0 120 -6 0 -9 -35 -9 -87z"/>
<path d="M1188 415 c2 -14 -2 -33 -9 -42 -13 -15 -12 -15 9 -4 25 13 29 43 8
60 -11 9 -12 6 -8 -14z"/>
<path d="M1294 355 c0 -49 1 -71 3 -48 2 23 2 64 0 90 -2 26 -3 8 -3 -42z"/>
<path d="M1394 355 c0 -47 4 -85 8 -85 4 0 8 38 8 85 0 47 -3 85 -7 85 -5 0
-8 -38 -9 -85z"/>
<path d="M1614 415 c9 -16 16 -43 16 -60 0 -16 -7 -43 -16 -60 l-15 -30 22 22
c17 16 22 34 22 68 0 34 -5 52 -22 68 l-22 22 15 -30z"/>
<path d="M1750 355 c0 -47 3 -85 8 -85 4 0 7 38 7 85 0 47 -3 85 -7 85 -5 0
-8 -38 -8 -85z"/>
<path d="M1894 432 c-45 -30 -42 -139 4 -157 13 -5 12 -2 -2 14 -25 27 -25
104 -1 131 19 21 18 25 -1 12z"/>
<path d="M1984 420 c9 -13 16 -43 16 -65 0 -22 -7 -52 -16 -65 l-17 -25 24 23
c18 17 24 33 24 67 0 34 -6 50 -24 67 l-24 23 17 -25z"/>
<path d="M2100 355 c0 -50 4 -85 10 -85 6 0 10 20 10 45 0 43 1 45 29 45 41 0
58 -24 44 -61 -13 -35 3 -40 18 -5 8 18 8 29 -2 47 -7 13 -14 39 -14 58 0 19
-6 36 -13 39 -11 3 -12 0 -4 -15 14 -26 -3 -53 -33 -53 -22 0 -25 5 -25 35 0
19 -4 35 -10 35 -6 0 -10 -35 -10 -85z"/>
<path d="M2310 418 c-33 -35 -21 -128 18 -143 12 -4 12 -1 -3 15 -25 27 -25
102 0 130 10 11 15 20 12 20 -3 0 -15 -10 -27 -22z"/>
<path d="M2414 420 c9 -13 16 -43 16 -65 0 -22 -7 -52 -16 -65 l-17 -25 24 23
c18 17 24 33 24 67 0 34 -6 50 -24 67 l-24 23 17 -25z"/>
<path d="M2554 432 c-44 -29 -42 -139 3 -156 11 -5 11 -1 -2 16 -19 29 -19 97
1 126 16 23 16 26 -2 14z"/>
<path d="M2644 420 c21 -32 20 -99 0 -130 l-17 -25 22 21 c13 12 25 38 28 61
4 33 1 44 -22 69 -22 24 -24 24 -11 4z"/>
<path d="M2760 355 c0 -50 4 -85 10 -85 6 0 10 35 10 85 0 50 -4 85 -10 85 -6
0 -10 -35 -10 -85z"/>
<path d="M1500 411 c-17 -32 -12 -96 10 -122 23 -29 25 -22 5 17 -19 36 -19
61 -1 97 8 15 11 27 6 27 -5 0 -14 -9 -20 -19z"/>
<path d="M2791 355 c0 -13 66 -91 73 -85 2 3 -13 25 -35 50 -21 25 -38 41 -38
35z"/>
</g>
</svg>
